<?xml version="1.0" standalone="no"?>
<!DOCTYPE svg PUBLIC "-//W3C//DTD SVG 20010904//EN"
 "http://www.w3.org/TR/2001/REC-SVG-20010904/DTD/svg10.dtd">
<svg version="1.0" xmlns="http://www.w3.org/2000/svg"
 width="500.000000pt" height="500.000000pt" viewBox="0 0 500.000000 500.000000"
 preserveAspectRatio="xMidYMid meet">

<g transform="translate(0.000000,500.000000) scale(0.100000,-0.100000)"
fill="#000000" stroke="none">
<path d="M2121 4074 c-73 -13 -135 -25 -138 -28 -5 -4 54 -387 61 -393 1 -2
17 0 34 3 38 8 38 0 8 184 -14 80 -23 147 -21 149 6 5 86 20 111 21 20 0 23
-11 43 -142 29 -186 26 -178 67 -178 19 0 34 4 34 9 0 12 -60 384 -63 392 -1
3 -62 -5 -136 -17z"/>
<path d="M2400 3900 l0 -200 35 0 35 0 0 74 0 74 57 7 c46 6 63 13 90 40 28
28 33 40 33 82 0 90 -45 123 -170 123 l-80 0 0 -200z m164 114 c37 -37 4 -94
-56 -94 -35 0 -37 5 -31 63 5 45 7 47 39 47 18 0 40 -7 48 -16z"/>
<path d="M2866 4045 c-117 -41 -168 -177 -110 -293 58 -117 211 -146 311 -59
46 41 73 99 73 160 0 61 -21 107 -70 151 -59 53 -130 68 -204 41z m118 -69
c134 -56 92 -259 -54 -259 -72 0 -124 58 -123 137 1 56 22 90 73 117 41 23 60
23 104 5z"/>
<path d="M3237 3767 c-43 -100 -77 -185 -77 -189 0 -6 62 -31 65 -26 1 2 30
69 64 151 35 81 67 147 72 147 5 0 34 -11 65 -25 61 -27 69 -25 79 15 6 26 0
29 -185 107 -3 2 -40 -79 -83 -180z"/>
<path d="M1523 3890 c-116 -27 -190 -154 -153 -264 27 -82 113 -145 198 -146
105 0 202 87 202 181 l0 29 -40 -20 c-22 -11 -40 -28 -40 -36 0 -24 -57 -73
-95 -80 -48 -9 -119 25 -140 67 -21 40 -21 98 0 138 22 43 67 64 125 59 33 -3
58 1 80 12 l33 17 -25 17 c-26 17 -85 37 -103 35 -5 -1 -24 -4 -42 -9z"/>
<path d="M3502 3646 c-56 -91 -102 -168 -102 -173 0 -5 13 -16 28 -25 l28 -17
32 52 c17 29 35 58 40 65 8 11 17 10 50 -7 84 -43 169 -14 191 66 16 57 -10
106 -80 154 -32 22 -65 42 -72 45 -9 3 -48 -51 -115 -160z m172 39 c28 -26 32
-45 16 -76 -12 -22 -46 -25 -85 -7 -31 14 -31 19 -2 68 26 47 35 48 71 15z"/>
<path d="M1031 3593 c-83 -44 -121 -146 -88 -240 10 -30 11 -45 3 -53 -8 -8
-26 6 -66 50 l-55 60 -28 -23 -27 -23 131 -147 c71 -81 134 -147 139 -147 4 0
18 9 31 19 l24 19 -54 61 c-67 78 -64 102 8 66 75 -38 166 -29 225 23 28 26
56 92 56 138 0 59 -45 142 -98 178 -55 39 -148 47 -201 19z m138 -68 c41 -21
77 -68 85 -109 15 -79 -53 -146 -133 -131 -48 9 -107 70 -116 119 -18 95 79
166 164 121z"/>
<path d="M3778 3461 c-69 -80 -126 -150 -125 -156 1 -5 36 -40 78 -77 l76 -67
24 25 24 26 -54 48 -55 48 28 36 c15 20 30 36 33 36 3 0 29 -20 58 -45 l52
-44 23 24 23 24 -52 47 c-28 25 -51 49 -51 52 1 4 13 22 29 39 l27 33 54 -46
53 -45 24 23 25 23 -46 42 c-26 23 -63 55 -84 71 l-37 30 -127 -147z"/>
<path d="M2095 3280 c-247 -126 -451 -233 -453 -238 -1 -4 52 -21 118 -36
l120 -27 0 -157 c0 -149 -1 -158 -21 -170 -16 -11 -20 -20 -15 -42 4 -24 -3
-40 -39 -88 -25 -33 -45 -64 -45 -69 0 -29 122 -51 185 -34 79 21 80 28 26
100 -27 36 -47 71 -44 78 8 22 -6 63 -22 63 -13 0 -15 25 -15 155 0 115 3 155
12 155 7 0 36 -6 65 -12 l53 -13 0 -122 c0 -118 1 -123 24 -138 13 -9 63 -23
110 -32 l86 -16 -22 -31 c-13 -17 -87 -118 -165 -223 -116 -156 -148 -193
-167 -193 -13 0 -38 -3 -55 -6 l-31 -6 0 -68 0 -68 -127 -171 c-71 -95 -134
-181 -142 -191 -13 -20 -11 -20 128 -20 l141 0 0 -155 0 -155 339 0 339 0 30
-30 c17 -16 38 -30 47 -30 9 0 30 14 47 30 l30 30 309 0 309 0 0 155 0 155
164 2 164 3 -164 220 c-113 152 -163 228 -164 246 0 20 -6 28 -24 33 -14 3
-35 21 -48 39 -12 17 -86 118 -163 222 -78 105 -144 195 -148 202 -5 8 15 15
65 23 40 7 89 19 108 29 l35 16 3 126 3 125 189 44 c105 24 190 47 190 52 0 4
-159 87 -352 184 -194 97 -399 201 -455 230 -56 30 -103 54 -105 53 -2 0 -205
-103 -453 -229z m844 -194 c135 -25 131 -19 131 -197 0 -140 -1 -151 -17 -144
-103 40 -428 63 -680 47 -159 -11 -275 -27 -325 -47 -17 -7 -18 4 -18 144 0
147 1 151 23 166 25 16 100 32 212 45 117 14 578 4 674 -14z m-445 -363 c-7
-68 -22 -83 -78 -83 -97 0 -321 33 -358 52 -73 36 117 81 365 86 l77 2 -6 -57z
m90 41 c3 -9 6 -35 6 -58 0 -46 12 -62 68 -90 138 -70 60 -256 -107 -256 -67
0 -108 18 -149 64 -57 65 -35 154 47 196 49 24 61 45 61 103 0 24 3 47 7 50
13 13 61 7 67 -9z m355 -9 c209 -37 147 -79 -157 -106 -167 -15 -167 -15 -178
75 l-7 59 131 -7 c72 -4 167 -13 211 -21z m-566 -125 l50 0 -20 -22 c-32 -36
-43 -63 -43 -109 0 -90 77 -152 189 -152 74 0 110 14 155 62 40 42 48 115 16
165 -12 20 -29 40 -38 46 -13 7 -2 9 39 10 31 0 70 3 86 6 29 6 35 -1 201
-225 95 -128 172 -234 172 -237 0 -13 -58 9 -120 44 -95 54 -117 60 -207 61
-67 1 -98 -5 -170 -30 -48 -16 -96 -33 -106 -36 -12 -4 -29 5 -50 25 -18 17
-57 43 -87 59 -47 24 -67 28 -135 28 -77 0 -85 -2 -200 -57 -138 -65 -172 -77
-159 -57 9 16 62 88 213 293 99 133 104 138 133 132 17 -3 53 -6 81 -6z m41
-338 c27 -9 68 -34 92 -55 l44 -39 0 -311 0 -311 -32 31 c-44 41 -102 69 -170
82 -73 13 -135 -2 -256 -63 -100 -50 -179 -76 -234 -76 l-38 0 0 310 0 310 31
0 c54 0 122 21 229 72 171 82 221 89 334 50z m631 -81 c59 -31 116 -53 146
-57 l49 -7 0 -310 0 -310 -48 6 c-31 4 -86 25 -151 59 -101 53 -103 53 -189
52 -82 -1 -160 -20 -275 -69 -16 -7 -17 10 -15 306 l3 312 80 30 c110 40 148
47 232 42 63 -3 83 -9 168 -54z m359 -334 c80 -108 146 -199 146 -202 0 -3
-67 -5 -150 -5 l-150 0 0 207 c0 113 2 204 4 202 2 -2 70 -93 150 -202z
m-1604 -37 l0 -170 -125 0 c-69 0 -125 3 -125 6 0 7 242 334 247 334 2 0 3
-76 3 -170z m622 -188 c26 -11 67 -39 91 -61 l45 -41 45 19 c103 44 188 63
266 59 77 -4 100 -12 220 -77 29 -16 75 -32 102 -35 44 -6 49 -9 49 -31 0 -33
-9 -32 -132 11 -157 55 -228 74 -278 74 -57 0 -152 -29 -219 -66 l-51 -29 -43
24 c-134 77 -169 91 -228 91 -48 0 -73 -7 -129 -35 -79 -40 -187 -71 -277 -79
l-63 -6 0 28 c0 27 3 28 83 44 45 8 107 28 137 43 153 76 212 96 276 92 33 -3
81 -14 106 -25z m-61 -87 c24 -9 77 -36 117 -62 l74 -45 90 42 c77 37 102 44
171 48 75 4 88 2 241 -48 88 -29 167 -55 174 -56 6 -2 12 -15 12 -29 0 -22 -4
-25 -34 -25 -18 0 -88 11 -156 25 -157 32 -277 33 -386 3 -43 -11 -90 -21
-104 -21 -14 0 -63 17 -109 38 -116 52 -184 56 -306 19 -160 -48 -189 -55
-257 -61 l-68 -6 0 37 0 36 48 0 c69 0 202 35 274 71 105 53 146 59 219 34z"/>
<path d="M2524 2560 l1 -95 39 0 c25 0 42 6 49 16 13 21 1 69 -18 69 -10 0
-15 15 -18 53 l-3 52 -2 -52 c-2 -45 -5 -53 -21 -53 -17 0 -21 8 -24 53 -2 28
-3 9 -3 -43z m22 -50 c-1 -35 -16 -41 -16 -7 0 20 7 37 15 37 1 0 2 -13 1 -30z
m21 -17 c-3 -10 -5 -2 -5 17 0 19 2 27 5 18 2 -10 2 -26 0 -35z m33 17 c0 -16
-4 -30 -10 -30 -11 0 -14 43 -3 53 11 12 13 8 13 -23z"/>
<path d="M2859 2379 c-20 -40 -22 -42 -35 -25 -7 11 -15 24 -17 30 -2 6 -7 9
-10 6 -4 -3 4 -23 17 -45 l24 -39 27 53 c14 29 24 55 21 58 -2 3 -14 -14 -27
-38z"/>
<path d="M2143 2019 c-18 -5 -33 -14 -33 -20 0 -6 8 -5 22 2 12 7 61 12 108
12 52 0 77 3 65 8 -27 10 -122 9 -162 -2z"/>
<path d="M2143 1959 c-18 -5 -33 -14 -33 -20 0 -6 8 -5 22 2 12 6 60 11 107
11 55 0 79 3 66 8 -27 11 -122 10 -162 -1z"/>
<path d="M2153 1898 c-24 -5 -43 -13 -43 -18 0 -6 11 -5 26 0 14 6 62 11 107
11 59 1 74 3 52 9 -41 10 -91 10 -142 -2z"/>
<path d="M2805 2021 c-12 -5 13 -8 65 -8 47 0 96 -5 108 -12 13 -7 22 -8 22
-2 0 24 -147 41 -195 22z"/>
<path d="M2805 1960 c-13 -5 11 -8 66 -8 47 0 95 -5 107 -11 13 -7 22 -8 22
-2 0 25 -148 41 -195 21z"/>
<path d="M2815 1901 c-23 -7 -10 -9 52 -10 45 0 93 -5 107 -11 14 -5 26 -6 26
-1 0 5 -7 11 -15 15 -28 10 -140 15 -170 7z"/>
<path d="M4080 3279 c-120 -48 -171 -192 -107 -301 37 -63 96 -98 165 -98 29
0 52 2 52 5 0 21 -47 64 -75 69 -21 4 -46 20 -64 42 -26 29 -31 43 -31 84 0
43 5 56 33 86 81 88 227 45 227 -68 0 -38 30 -98 50 -98 16 0 32 71 26 114
-10 64 -52 122 -110 151 -53 26 -120 32 -166 14z"/>
<path d="M586 3105 c-9 -13 -16 -27 -16 -29 0 -5 225 -322 240 -339 4 -5 17 5
30 23 l22 31 -91 121 c-50 67 -90 123 -88 124 1 2 67 -16 146 -39 l144 -41 23
29 c13 16 21 31 20 33 -3 2 -401 111 -412 112 -1 0 -9 -11 -18 -25z"/>
<path d="M3610 2893 c0 -5 9 -18 20 -28 l20 -18 -20 -22 c-29 -31 -25 -43 5
-15 l25 23 25 -23 c14 -13 25 -19 25 -13 0 5 -9 18 -20 28 l-20 18 20 22 c29
31 25 43 -5 15 l-25 -23 -25 23 c-14 13 -25 19 -25 13z"/>
<path d="M4325 2866 c-79 -34 -134 -113 -135 -192 0 -50 40 -133 78 -161 27
-20 91 -43 120 -43 22 0 -20 67 -58 92 -19 13 -43 41 -54 62 -16 33 -17 43 -6
79 23 78 100 122 173 98 65 -22 104 -90 87 -152 -7 -24 -5 -40 9 -66 l18 -36
22 31 c32 46 38 118 13 173 -11 24 -30 55 -42 68 -52 54 -158 76 -225 47z"/>
<path d="M376 2733 c-31 -70 -53 -130 -49 -134 6 -5 286 -130 349 -155 10 -4
34 35 34 55 0 5 -65 38 -145 72 -80 35 -145 68 -145 74 0 18 44 115 52 115 4
0 73 -29 153 -64 l145 -64 16 30 c8 16 14 32 11 34 -3 4 -358 164 -362 164 -2
0 -28 -57 -59 -127z"/>
<path d="M3372 2701 c-66 -23 -98 -52 -128 -116 -43 -90 -27 -175 45 -246 31
-32 60 -51 91 -59 50 -13 134 -7 156 11 16 13 13 15 131 -94 66 -61 77 -65
111 -41 42 29 29 61 -59 150 -68 68 -79 85 -71 100 36 70 15 180 -45 240 -65
65 -147 85 -231 55z m169 -24 c66 -35 102 -93 107 -171 3 -49 0 -71 -17 -103
-68 -134 -238 -158 -338 -50 -63 69 -75 158 -31 242 50 96 180 134 279 82z"/>
<path d="M3371 2632 c-93 -47 -113 -173 -40 -248 41 -43 94 -59 148 -44 79 21
121 76 121 158 0 115 -124 188 -229 134z m157 -20 c84 -61 79 -187 -11 -243
-25 -15 -44 -19 -85 -16 -45 3 -59 9 -89 40 -31 30 -37 44 -41 89 -3 44 0 59
20 88 47 70 140 89 206 42z"/>
<path d="M1449 2370 c-13 -10 -19 -19 -12 -20 6 0 15 5 18 10 3 6 19 10 35 10
22 0 38 -11 69 -47 39 -46 40 -48 18 -51 -41 -7 -60 -33 -54 -77 5 -34 2 -43
-20 -61 -25 -20 -27 -20 -60 -3 -42 21 -73 14 -86 -21 l-10 -27 -42 51 c-44
54 -76 67 -115 46 -29 -16 -19 -23 14 -10 39 14 56 2 125 -89 61 -80 75 -91
116 -91 33 0 47 23 44 71 -3 35 1 45 25 64 27 21 31 22 52 8 58 -38 116 10 89
74 -15 35 -98 149 -125 170 -22 18 -55 16 -81 -7z m172 -140 c34 -33 37 -75 6
-94 -24 -15 -67 10 -83 50 -11 26 -10 35 2 53 21 29 40 27 75 -9z m-166 -126
c31 -33 33 -79 5 -94 -46 -24 -109 45 -89 98 12 31 53 29 84 -4z"/>
<path d="M3541 1924 c7 -8 7 -14 -1 -19 -5 -3 -10 -11 -10 -17 0 -7 6 -6 15 2
12 10 18 10 30 0 9 -8 15 -9 15 -2 0 6 -5 14 -10 17 -8 5 -8 11 -1 19 8 10 4
13 -19 13 -23 0 -27 -3 -19 -13z"/>
<path d="M1618 1538 c-2 -27 -8 -34 -33 -39 l-30 -7 33 -1 c29 -1 32 -4 32
-31 0 -16 5 -30 10 -30 6 0 10 13 10 29 0 26 4 30 33 34 l32 4 -32 1 c-29 2
-33 5 -33 31 0 42 -18 48 -22 9z"/>
<path d="M1371 1348 c0 -9 -9 -19 -18 -21 -16 -4 -16 -5 -1 -6 9 0 19 -11 21
-23 4 -23 4 -23 6 -1 1 14 9 23 24 26 22 4 22 4 0 6 -12 0 -24 9 -26 19 -4 15
-5 15 -6 0z"/>
<path d="M2380 1073 c0 -13 28 -25 41 -17 5 3 9 10 9 16 0 7 -4 7 -13 -1 -10
-8 -17 -7 -25 1 -8 8 -12 9 -12 1z"/>
<path d="M2725 1055 c-27 -26 -34 -82 -13 -103 20 -20 48 -14 58 14 13 33 -3
64 -33 64 -21 1 -20 2 8 25 17 14 24 25 17 25 -7 0 -24 -11 -37 -25z m33 -59
c4 -20 -16 -48 -29 -40 -11 6 -12 48 -2 58 11 10 28 1 31 -18z"/>
<path d="M2002 1028 c-7 -7 -12 -24 -12 -38 0 -51 52 -69 72 -25 22 49 -25 98
-60 63z m43 -39 c0 -24 -5 -34 -15 -34 -16 0 -25 37 -16 62 10 26 31 8 31 -28z"/>
<path d="M2090 990 c0 -27 5 -50 10 -50 6 0 10 9 10 20 0 11 7 20 15 20 8 0
15 -9 15 -20 0 -11 5 -20 10 -20 6 0 10 23 10 50 0 28 -4 50 -10 50 -5 0 -10
-9 -10 -20 0 -11 -7 -20 -15 -20 -8 0 -15 9 -15 20 0 11 -4 20 -10 20 -5 0
-10 -22 -10 -50z"/>
<path d="M2190 1006 c0 -19 -3 -43 -7 -53 -6 -16 -5 -16 10 -4 9 7 17 26 17
42 0 48 28 36 33 -13 3 -41 4 -41 5 10 2 52 2 52 -28 52 -27 0 -30 -3 -30 -34z"/>
<path d="M2285 1029 c-10 -16 3 -23 18 -11 8 7 17 9 20 5 13 -12 7 -21 -19
-27 -19 -5 -25 -12 -22 -29 2 -17 11 -23 36 -25 31 -3 32 -2 32 32 0 19 -3 41
-6 50 -7 18 -49 22 -59 5z m45 -53 c0 -16 -18 -31 -27 -22 -8 8 5 36 17 36 5
0 10 -6 10 -14z"/>
<path d="M2370 990 c0 -56 12 -64 34 -22 l15 27 1 -27 c0 -16 5 -28 10 -28 6
0 10 23 10 50 0 58 -10 63 -33 18 l-16 -33 0 33 c-1 53 -21 36 -21 -18z"/>
<path d="M2470 990 c0 -27 5 -50 10 -50 6 0 10 9 10 20 0 11 7 20 15 20 8 0
15 -9 15 -20 0 -11 5 -20 10 -20 6 0 10 23 10 50 0 28 -4 50 -10 50 -5 0 -10
-9 -10 -20 0 -11 -7 -20 -15 -20 -8 0 -15 9 -15 20 0 11 -4 20 -10 20 -5 0
-10 -22 -10 -50z"/>
<path d="M2610 1015 c-14 -37 3 -75 34 -75 25 0 36 16 36 54 0 47 -54 64 -70
21z m60 -25 c0 -16 -28 -42 -38 -36 -16 10 -15 63 1 69 11 4 37 -19 37 -33z"/>
<path d="M2790 1024 c0 -24 19 -54 35 -54 8 0 15 -7 15 -15 0 -8 5 -15 10 -15
6 0 10 23 10 50 0 28 -4 50 -10 50 -5 0 -10 -11 -10 -25 0 -16 -6 -25 -15 -25
-9 0 -15 9 -15 25 0 14 -4 25 -10 25 -5 0 -10 -7 -10 -16z"/>
<path d="M2890 1015 c-14 -37 3 -75 35 -75 14 0 25 5 25 11 0 5 -4 8 -9 5 -12
-8 -41 3 -41 15 0 5 11 9 24 9 31 0 40 14 26 40 -15 28 -48 26 -60 -5z m50 -6
c0 -5 -9 -9 -20 -9 -22 0 -27 16 -7 23 15 5 27 -1 27 -14z"/>
<path d="M2983 990 c0 -30 2 -45 4 -32 6 29 43 31 43 2 0 -11 5 -20 10 -20 6
0 10 23 10 50 0 28 -4 50 -10 50 -5 0 -10 -9 -10 -20 0 -29 -37 -27 -43 3 -2
12 -4 -3 -4 -33z"/>
<path d="M3070 990 c0 -58 12 -64 37 -17 l17 32 7 -35 c6 -31 7 -30 8 18 1 60
-8 66 -32 20 l-16 -33 0 33 c-1 53 -21 36 -21 -18z"/>
<path d="M3174 1026 c-3 -8 -4 -29 -2 -48 2 -26 8 -34 27 -36 13 -2 28 2 35 8
8 9 6 11 -10 6 -13 -4 -26 -1 -34 9 -11 13 -9 15 13 15 31 0 41 13 32 40 -7
23 -53 28 -61 6z m46 -17 c0 -5 -10 -9 -21 -9 -18 0 -19 2 -9 15 12 15 30 12
30 -6z"/>
</g>
</svg>
